<svg width="520" height="160" viewBox="0 0 520 160" fill="none" xmlns="http://www.w3.org/2000/svg" role="img" aria-labelledby="title desc">
  <title id="title">MIG MASTER logo</title>
  <desc id="desc">A restrained monochrome MIG MASTER logo with an abstract angular M mark.</desc>
  <rect width="520" height="160" fill="none"/>
  <g transform="translate(46 38)">
    <path d="M0 84V0H24L54 38L84 0H108V84H82V38L59 68H49L26 38V84H0Z" fill="#111111"/>
    <path d="M26 0H46L54 38L24 0H26Z" fill="url(#shine)" opacity=".38"/>
    <path d="M84 0H108L59 68L54 38L84 0Z" fill="url(#shine)" opacity=".42"/>
    <path d="M0 84H26V66H0V84Z" fill="#8B8F96"/>
    <path d="M82 84H108V66H82V84Z" fill="#8B8F96" opacity=".8"/>
  </g>
  <g fill="#111111" font-family="Arial, Helvetica, sans-serif" font-weight="900" letter-spacing="2">
    <text x="182" y="72" font-size="46">MIG</text>
    <text x="182" y="118" font-size="46">MASTER</text>
  </g>
  <defs>
    <linearGradient id="shine" x1="0" y1="0" x2="92" y2="96" gradientUnits="userSpaceOnUse">
      <stop stop-color="#111111"/>
      <stop offset=".42" stop-color="#4B5563"/>
      <stop offset="1" stop-color="#9CA3AF"/>
    </linearGradient>
    <pattern id="grid" width="12" height="12" patternUnits="userSpaceOnUse">
      <path d="M12 0H0V12" stroke="white" stroke-width=".45" opacity=".26"/>
    </pattern>
  </defs>
</svg>
